<?xml version="1.0"?>
<svg width="32" height="32" xmlns="http://www.w3.org/2000/svg" xmlns:svg="http://www.w3.org/2000/svg">
    <style type="text/css">.st0{fill-rule:evenodd;clip-rule:evenodd;fill:#007FC3;}
        .st1{fill-rule:evenodd;clip-rule:evenodd;fill:#6D6E71;}
    </style>
    <g>
        <path class="st0"
              d="m12.941578,24.574696c-1.229985,0.320538 -2.45997,-0.373965 -2.780834,-1.602695l-2.673879,-10.043568c-0.320864,-1.228735 0.374344,-2.45747 1.604329,-2.778008l10.05379,-2.671164c1.229985,-0.320538 2.45997,0.373965 2.780834,1.602695l2.673879,10.043568c0.320864,1.228735 -0.374344,2.45747 -1.604329,2.778008l-10.05379,2.671164l0,0z"/>
        <path class="st1"
              d="m30.910056,13.302393l-3.155177,-3.151973c0.160434,0.534232 0.160434,1.068463 0,1.656122l-3.689955,13.729773c0,0 0,0 0,0.053422l6.845133,-6.838178c1.443894,-1.549273 1.443894,-3.953321 0,-5.449171l0,0l0,0.000005z"/>
        <path class="st1"
              d="m4.278208,20.193988l3.689955,-13.729773c0,0 0,0 0,-0.053422l-6.845133,6.838178c-1.497374,1.495851 -1.497374,3.899898 0,5.395749l3.155177,3.151973c-0.160434,-0.427387 -0.160434,-1.015041 0,-1.602695l0,0l0,-0.00001z"/>
        <path class="st1"
              d="m11.765073,4.273861l13.743745,3.686205c0,0 0,0 0.05348,0l-6.845133,-6.838178c-1.497374,-1.495851 -3.903864,-1.495851 -5.401238,0l-3.155177,3.151973c0.481298,-0.106844 1.069551,-0.106844 1.604329,0l0,0l-0.000005,0z"/>
        <path class="st1"
              d="m20.214534,27.726669l-13.743745,-3.686205c0,0 0,0 -0.05348,0l6.845133,6.838178c1.497374,1.495851 3.903864,1.495851 5.401238,0l3.155177,-3.151973c-0.481298,0.106844 -1.069551,0.160272 -1.604329,0l0,0l0.000005,0z"/>
    </g>
</svg>