<svg width="16" height="16" viewBox="0 0 16 16" fill="none" xmlns="http://www.w3.org/2000/svg">
<path d="M8.29935 15H8.39361L10.6557 13.7765H10.75H10.8443L13.1064 15H13.2006C13.3892 15 13.4834 14.9059 13.4834 14.7176L13.0121 12.2706C13.0121 12.1765 13.0121 12.0824 13.1064 12.0824L14.8972 10.2941C15.0858 10.1059 14.9915 9.9176 14.803 9.9176L12.3523 9.4471C12.2581 9.4471 12.1638 9.3529 12.1638 9.3529L11.0328 7.09412C11.0328 7 10.9385 7 10.8443 7C10.75 7 10.6557 7 10.6557 7.09412L9.4304 9.3529C9.4304 9.4471 9.3362 9.4471 9.2419 9.4471L6.69701 9.8235C6.5085 9.8235 6.41424 10.1059 6.60275 10.2L8.39361 11.9882C8.48787 12.0824 8.48787 12.0824 8.48787 12.1765L8.01659 14.6235C8.01659 14.9059 8.2051 15 8.29935 15Z" fill="#9AA7B0"/>
<path fill-rule="evenodd" clip-rule="evenodd" d="M1 8.86365C1 5.06301 4.14407 2 8.00004 2C11.856 2 15 5.06302 15 8.86365C15 8.89934 14.9997 8.93496 14.9992 8.97051C14.7078 8.66611 14.3336 8.5022 13.9853 8.45002C13.7683 5.41309 11.1807 3 8.00004 3C4.67626 3 2 5.63518 2 8.86365C2 10.1076 2.39582 11.2604 3.07227 12.2099C3.2325 12.4348 3.18008 12.747 2.95518 12.9072C2.73028 13.0675 2.41807 13.015 2.25783 12.7901C1.46554 11.6781 1 10.3238 1 8.86365ZM10.6468 6.00086C9.94157 5.37798 9.01495 5 8.00003 5C5.79087 5 4 6.79086 4 9.00001C4 10.8268 5.22457 12.3675 6.89761 12.8462L6.96742 12.4686L6.15056 11.619C5.51815 11.103 5.40495 10.2722 5.56526 9.68861C5.72037 9.12391 6.2307 8.44053 7.08655 8.36066L8.38475 8.16066L8.94412 7.08657C8.9977 6.94882 9.07188 6.80961 9.17234 6.67532C9.43266 6.32737 9.75405 6.16764 9.96351 6.09505C10.1638 6.02566 10.3343 6.01022 10.4107 6.00493C10.486 5.99971 10.5554 5.99996 10.5701 6.00002L10.5724 6.00003L10.5746 6.00002C10.5832 5.99999 10.6105 5.99989 10.6468 6.00086ZM8.50445 12.9685L8.68715 11.9804C8.68715 11.902 8.68715 11.902 8.61173 11.8235L7.17899 10.3333C7.02818 10.2549 7.10359 10.0196 7.2544 10.0196L9.29039 9.70593C9.36584 9.70593 9.4412 9.70593 9.4412 9.62743L10.4215 7.74512C10.4215 7.66669 10.4969 7.66669 10.5724 7.66669C10.6477 7.66669 10.7232 7.66669 10.7232 7.74512L11.628 9.62743C11.628 9.62743 11.7034 9.70593 11.7788 9.70593L11.9323 9.73663C11.6168 11.4318 10.2321 12.7511 8.50445 12.9685ZM13.7779 10.4501C13.8071 10.3485 13.8335 10.2458 13.8571 10.142C13.9154 10.1996 13.9168 10.3057 13.8148 10.4118L13.7779 10.4501Z" fill="#9AA7B0"/>
</svg>
