<svg width="16" height="16" viewBox="0 0 16 16" fill="none" xmlns="http://www.w3.org/2000/svg">
<path d="M1 6.51286C1 6.20343 1.05953 5.93505 1.1786 5.70771C1.29767 5.48038 1.45422 5.30672 1.64826 5.18674C1.8467 5.06676 2.05176 4.98151 2.26344 4.93099C2.47512 4.87415 2.69561 4.84574 2.92493 4.84574H3.02415V4.76049C3.02415 4.40054 2.86319 4.22057 2.54126 4.22057C2.24139 4.22057 1.92829 4.37528 1.60195 4.68471L1.20506 3.52909C1.35941 3.35859 1.57108 3.21019 1.84009 3.0839C2.1135 2.9576 2.38251 2.89445 2.6471 2.89445C3.11896 2.89445 3.4894 3.07127 3.7584 3.4249C4.03182 3.77853 4.16853 4.26477 4.16853 4.88363V7.88633H3.12337V7.59269L3.1366 7.28958H3.12337C3.01313 7.5106 2.86539 7.68426 2.68018 7.81056C2.49937 7.93685 2.30974 8 2.1113 8C1.78496 8 1.51816 7.85792 1.3109 7.57375C1.10363 7.28958 1 6.93595 1 6.51286ZM2.13114 6.3613C2.13114 6.48128 2.15981 6.58232 2.21714 6.66441C2.27446 6.74019 2.35384 6.77808 2.45527 6.77808C2.61403 6.77808 2.75074 6.68651 2.86539 6.50338C2.98005 6.32025 3.03738 6.12449 3.03738 5.9161V5.78349H2.93154C2.71987 5.78349 2.53244 5.83085 2.36928 5.92558C2.21052 6.01398 2.13114 6.15922 2.13114 6.3613Z" fill="#AFB1B3"/>
<path d="M5.80914 7.88633V1.11367H7.54886C8.03395 1.11367 8.42202 1.26838 8.71308 1.57781C9.00854 1.88092 9.15627 2.31664 9.15627 2.88498C9.15627 3.17546 9.10776 3.45332 9.01075 3.71854C8.91373 3.97745 8.77922 4.17952 8.60724 4.32476V4.34371C8.8586 4.45106 9.04382 4.64998 9.16289 4.94046C9.28637 5.22463 9.3481 5.53406 9.3481 5.86874C9.3481 6.55706 9.17832 7.0654 8.83876 7.39378C8.4992 7.72215 8.06923 7.88633 7.54886 7.88633H5.80914ZM6.96675 3.73748H7.56209C7.69879 3.73748 7.80243 3.67749 7.87299 3.55751C7.94355 3.43753 7.97882 3.28913 7.97882 3.11231C7.97882 2.94181 7.94134 2.80289 7.86637 2.69553C7.79581 2.58818 7.68777 2.53451 7.54224 2.53451H6.96675V3.73748ZM6.96675 6.46549H7.66131C7.82007 6.46549 7.94355 6.39919 8.03174 6.26658C8.11994 6.12765 8.16404 5.95715 8.16404 5.75507C8.16404 5.553 8.12215 5.38881 8.03836 5.26252C7.95457 5.12991 7.83109 5.0636 7.66793 5.0636H6.96675V6.46549Z" fill="#AFB1B3"/>
<path d="M10.6143 4.48579C10.6143 3.48805 10.8459 2.65765 11.3089 1.99459C11.7763 1.33153 12.3717 1 13.0949 1C13.4257 1 13.7476 1.08209 14.0607 1.24628C14.3738 1.40415 14.6428 1.64096 14.8677 1.9567L14.3319 3.20704C14.1731 3.00496 13.9857 2.84078 13.7696 2.71448C13.558 2.58187 13.3507 2.51556 13.1478 2.51556C12.7068 2.51556 12.3739 2.70501 12.149 3.0839C11.9241 3.45647 11.8116 3.91114 11.8116 4.4479C11.8116 4.99729 11.9263 5.47406 12.1556 5.87821C12.3893 6.28236 12.7201 6.48444 13.1478 6.48444C13.5976 6.48444 14.0166 6.20659 14.4047 5.65088L15 6.86333C14.4884 7.62111 13.8534 8 13.0949 8C12.3452 8 11.7433 7.67163 11.289 7.01488C10.8392 6.35183 10.6143 5.5088 10.6143 4.48579Z" fill="#AFB1B3"/>
<rect x="1.5" y="10.5" width="13" height="3" rx="1.5" stroke="#AFB1B3"/>
</svg>
