<svg width="16" height="16" viewBox="0 0 16 16" fill="none" xmlns="http://www.w3.org/2000/svg">
<path fill-rule="evenodd" clip-rule="evenodd" d="M2 12.5C2 12.2239 2.22386 12 2.5 12H13.5C13.7761 12 14 12.2239 14 12.5C14 12.7761 13.7761 13 13.5 13H2.5C2.22386 13 2 12.7761 2 12.5ZM2.5 14C1.84689 14 1.29127 13.5826 1.08535 13C1.03008 13.1564 1 13.3247 1 13.5C1 14.3284 1.67157 15 2.5 15H13.5C14.3284 15 15 14.3284 15 13.5C15 13.3247 14.9699 13.1564 14.9146 13C14.7087 13.5826 14.1531 14 13.5 14H2.5Z" fill="#4D4D4D"/>
<rect x="1.5" y="11.5" width="13" height="2" rx="1" stroke="#C4C4C4"/>
<path d="M1.00001 7.65415C1.00001 7.37412 1.00001 6.29886 1.00001 6.29886C1.11908 6.09313 1.45423 6.56261 1.64827 6.45403C1.84671 6.34545 1.56201 6.67012 1.77368 6.6244C1.98536 6.57297 2.70224 6.45403 2.93155 6.45403L3.12338 6.52261H1.69887C1.69887 6.19686 2.21511 5.67395 1.89318 5.67395C1.59331 5.67395 1.9283 5.71967 1.60196 5.9997L1.38494 5.67395C1.07404 5.41762 1.0419 3.93208 1.31091 3.81778C1.58432 3.70348 2.41559 3.45694 2.68019 3.45694C3.15205 3.45694 3.48941 4.53955 3.75841 4.85958C4.03183 5.17962 4.16854 5.61966 4.16854 6.17972V8.89713H3.12338V8.63139L3.13661 8.35708H3.12338C3.01314 8.5571 2.8654 8.71425 2.68019 8.82855C2.49938 8.94285 2.30975 9 2.11131 9C1.78497 9 1.51817 8.87141 1.31091 8.61424C1.10364 8.35707 1.00001 8.03705 1.00001 7.65415ZM2.31533 7.05956C2.31533 7.16814 2.17759 7.0398 2.23492 7.1141C2.29225 7.18267 2.44593 6.92551 2.54736 6.92551C2.70612 6.92551 2.61611 7.27983 2.73077 7.1141C2.84543 6.94836 2.8654 7.15696 2.8654 6.96837V6.77151L2.68019 6.73722C2.46851 6.73722 2.47849 6.88264 2.31533 6.96837C2.15657 7.04838 2.31533 6.87668 2.31533 7.05956Z" fill="#4D4D4D"/>
<path d="M5.80916 8.89713V2.76795L7.66794 2.04287C8.15303 2.04287 8.51954 2.38505 8.81059 2.66508C9.10606 2.93939 9.15628 3.85663 9.15628 4.37096C9.15628 4.63385 9.10777 4.8853 9.01076 5.12533C8.91374 5.35963 8.77924 5.54251 8.60725 5.67395V5.6911C8.85861 5.78825 9.03722 5.42821 9.15628 5.6911C9.27976 5.94826 9.34811 6.76835 9.34811 7.07123C9.34811 7.69415 9.17833 8.1542 8.83877 8.45137C8.49921 8.74854 8.06924 8.89713 7.54887 8.89713H5.80916ZM6.96676 4.55098L7.54225 4.37096C7.67896 4.37096 7.84661 4.68528 7.91717 4.5767C7.98773 4.46812 7.97884 4.73671 7.97884 4.5767C7.97884 4.4224 7.94135 4.29667 7.86638 4.19952C7.79582 4.10237 7.68778 4.05379 7.54225 4.05379H6.96676V4.55098ZM6.96676 7.11409L7.66794 6.96837C7.82669 6.96837 7.89064 7.19982 7.97884 7.07981C8.06703 6.95408 8.16405 7.15124 8.16405 6.96837C8.16405 6.78549 8.12216 6.6369 8.03837 6.52261C7.95458 6.4026 7.8311 6.73722 7.66794 6.73722L6.8115 6.6244L6.96676 7.11409Z" fill="#4D4D4D"/>
<path d="M10.477 5.81968C10.477 4.91674 10.8001 3.26514 11.2631 2.66508C11.7306 2.06502 12.2343 2.17959 12.9575 2.17959C13.2883 2.17959 13.5006 1.89429 13.8137 2.04288C14.1268 2.18575 14.6377 2.37933 14.8626 2.66508L14.4047 4.37096C14.2459 4.18809 14.0298 3.99664 13.8137 3.88234C13.602 3.76233 13.4235 3.74519 13.2206 3.74519C12.7796 3.74519 12.4467 3.91663 12.2217 4.25952C11.8322 4.68814 11.6743 5.29963 11.6743 5.7854C11.6743 6.28259 11.7889 6.71406 12.0182 7.07981C12.252 7.44556 12.7111 6.96837 13.1389 6.96837C13.5887 6.96837 14.0166 7.12731 14.4047 6.6244L15 7.72165C14.4884 8.40744 14.0889 9 12.9575 9C12.2079 9 11.6059 8.70283 11.1517 8.10848C10.7019 7.50842 10.477 6.74549 10.477 5.81968Z" fill="#4D4D4D"/>
<path d="M1.00001 6.51286C1.00001 6.20343 1.05954 5.93505 1.17861 5.70771C1.29768 5.48038 1.45423 5.30672 1.64827 5.18674C1.84671 5.06676 2.05177 4.98151 2.26345 4.93099C2.47513 4.87415 2.69562 4.84574 2.92494 4.84574H3.02416V4.76049C3.02416 4.40054 2.8632 4.22057 2.54127 4.22057C2.2414 4.22057 1.9283 4.37528 1.60196 4.68471L1.20507 3.52909C1.35942 3.35859 1.57109 3.21019 1.8401 3.0839C2.11351 2.9576 2.38252 2.89445 2.64711 2.89445C3.11897 2.89445 3.48941 3.07127 3.75841 3.4249C4.03183 3.77853 4.16854 4.26477 4.16854 4.88363V7.88633H3.12338V7.59269L3.13661 7.28958H3.12338C3.01314 7.5106 2.8654 7.68426 2.68019 7.81056C2.49938 7.93685 2.30975 8 2.11131 8C1.78497 8 1.51817 7.85792 1.31091 7.57375C1.10364 7.28958 1.00001 6.93595 1.00001 6.51286ZM2.13115 6.3613C2.13115 6.48128 2.15982 6.58232 2.21715 6.66441C2.27447 6.74019 2.35385 6.77808 2.45528 6.77808C2.61404 6.77808 2.75075 6.68651 2.8654 6.50338C2.98006 6.32025 3.03739 6.12449 3.03739 5.9161V5.78349H2.93155C2.71988 5.78349 2.53245 5.83085 2.36929 5.92558C2.21053 6.01398 2.13115 6.15922 2.13115 6.3613Z" fill="#C4C4C4"/>
<path d="M5.80914 7.88633V1.11367H7.54886C8.03395 1.11367 8.42202 1.26838 8.71308 1.57781C9.00854 1.88092 9.15627 2.31664 9.15627 2.88498C9.15627 3.17546 9.10776 3.45332 9.01075 3.71854C8.91373 3.97745 8.77922 4.17952 8.60724 4.32476V4.34371C8.8586 4.45106 9.04382 4.64998 9.16289 4.94046C9.28637 5.22463 9.3481 5.53406 9.3481 5.86874C9.3481 6.55706 9.17832 7.0654 8.83876 7.39378C8.4992 7.72215 8.06923 7.88633 7.54886 7.88633H5.80914ZM6.96675 3.73748H7.56209C7.69879 3.73748 7.80243 3.67749 7.87299 3.55751C7.94355 3.43753 7.97882 3.28913 7.97882 3.11231C7.97882 2.94181 7.94134 2.80289 7.86637 2.69553C7.79581 2.58818 7.68777 2.53451 7.54224 2.53451H6.96675V3.73748ZM6.96675 6.46549H7.66131C7.82007 6.46549 7.94355 6.39919 8.03174 6.26658C8.11994 6.12765 8.16404 5.95715 8.16404 5.75507C8.16404 5.553 8.12215 5.38881 8.03836 5.26252C7.95457 5.12991 7.83109 5.0636 7.66793 5.0636H6.96675V6.46549Z" fill="#C4C4C4"/>
<path d="M10.6143 4.48579C10.6143 3.48805 10.8459 2.65765 11.3089 1.99459C11.7763 1.33153 12.3717 1 13.0949 1C13.4257 1 13.7476 1.08209 14.0607 1.24628C14.3738 1.40415 14.6428 1.64096 14.8677 1.9567L14.3319 3.20704C14.1731 3.00496 13.9857 2.84078 13.7696 2.71448C13.558 2.58187 13.3507 2.51556 13.1478 2.51556C12.7068 2.51556 12.3739 2.70501 12.149 3.0839C11.9241 3.45647 11.8116 3.91114 11.8116 4.4479C11.8116 4.99729 11.9263 5.47406 12.1556 5.87821C12.3893 6.28236 12.7201 6.48444 13.1478 6.48444C13.5976 6.48444 14.0166 6.20659 14.4047 5.65088L15 6.86333C14.4884 7.62111 13.8534 8 13.0949 8C12.3452 8 11.7433 7.67163 11.289 7.01488C10.8392 6.35183 10.6143 5.5088 10.6143 4.48579Z" fill="#C4C4C4"/>
</svg>
