<svg width="16" height="16" viewBox="0 0 16 16" fill="none" xmlns="http://www.w3.org/2000/svg">
<path fill-rule="evenodd" clip-rule="evenodd" d="M2 13V5H14V13C14 13.5523 13.5523 14 13 14H3C2.44772 14 2 13.5523 2 13ZM3 1C1.89543 1 1 1.89543 1 3V13C1 14.1046 1.89543 15 3 15H13C14.1046 15 15 14.1046 15 13V3C15 1.89543 14.1046 1 13 1H3ZM3.75 3.75134C4.16421 3.75134 4.5 3.41555 4.5 3.00134C4.5 2.58712 4.16421 2.25134 3.75 2.25134C3.33579 2.25134 3 2.58712 3 3.00134C3 3.41555 3.33579 3.75134 3.75 3.75134ZM7 3.00134C7 3.41555 6.66421 3.75134 6.25 3.75134C5.83579 3.75134 5.5 3.41555 5.5 3.00134C5.5 2.58712 5.83579 2.25134 6.25 2.25134C6.66421 2.25134 7 2.58712 7 3.00134ZM8.75209 3.75134C9.1663 3.75134 9.50209 3.41555 9.50209 3.00134C9.50209 2.58712 9.1663 2.25134 8.75209 2.25134C8.33788 2.25134 8.00209 2.58712 8.00209 3.00134C8.00209 3.41555 8.33788 3.75134 8.75209 3.75134ZM12 7H3V8H12V7ZM3 11V10H8V11H3Z" fill="#AFB1B3"/>
</svg>
