<svg width="16" height="16" viewBox="0 0 16 16" fill="none" xmlns="http://www.w3.org/2000/svg">
<path fill-rule="evenodd" clip-rule="evenodd" d="M1 13V6H15V13C15 13.5523 14.5523 14 14 14H2C1.44772 14 1 13.5523 1 13ZM2 2C0.895431 2 0 2.89543 0 4V13C0 14.1046 0.895431 15 2 15H14C15.1046 15 16 14.1046 16 13V4C16 2.89543 15.1046 2 14 2H2ZM2.75 4.75134C3.16421 4.75134 3.5 4.41555 3.5 4.00134C3.5 3.58712 3.16421 3.25134 2.75 3.25134C2.33579 3.25134 2 3.58712 2 4.00134C2 4.41555 2.33579 4.75134 2.75 4.75134ZM6 4.00134C6 4.41555 5.66421 4.75134 5.25 4.75134C4.83579 4.75134 4.5 4.41555 4.5 4.00134C4.5 3.58712 4.83579 3.25134 5.25 3.25134C5.66421 3.25134 6 3.58712 6 4.00134ZM7.75209 4.75134C8.1663 4.75134 8.50209 4.41555 8.50209 4.00134C8.50209 3.58712 8.1663 3.25134 7.75209 3.25134C7.33788 3.25134 7.00209 3.58712 7.00209 4.00134C7.00209 4.41555 7.33788 4.75134 7.75209 4.75134Z" fill="#4F4F4F"/>
<path fill-rule="evenodd" clip-rule="evenodd" d="M1 12V5H15V12C15 12.5523 14.5523 13 14 13H2C1.44772 13 1 12.5523 1 12ZM2 1C0.895431 1 0 1.89543 0 3V12C0 13.1046 0.895431 14 2 14H14C15.1046 14 16 13.1046 16 12V3C16 1.89543 15.1046 1 14 1H2ZM2.75 3.75134C3.16421 3.75134 3.5 3.41555 3.5 3.00134C3.5 2.58712 3.16421 2.25134 2.75 2.25134C2.33579 2.25134 2 2.58712 2 3.00134C2 3.41555 2.33579 3.75134 2.75 3.75134ZM6 3.00134C6 3.41555 5.66421 3.75134 5.25 3.75134C4.83579 3.75134 4.5 3.41555 4.5 3.00134C4.5 2.58712 4.83579 2.25134 5.25 2.25134C5.66421 2.25134 6 2.58712 6 3.00134ZM7.75209 3.75134C8.1663 3.75134 8.50209 3.41555 8.50209 3.00134C8.50209 2.58712 8.1663 2.25134 7.75209 2.25134C7.33788 2.25134 7.00209 2.58712 7.00209 3.00134C7.00209 3.41555 7.33788 3.75134 7.75209 3.75134Z" fill="#C4C4C4"/>
<rect x="2.00195" y="7" width="11" height="1" fill="#C4C4C4"/>
<rect x="2.00195" y="10" width="6" height="1" fill="#C4C4C4"/>
<rect x="2.00195" y="8" width="11" height="1" fill="#4F4F4F"/>
<rect x="2.00195" y="11" width="6" height="1" fill="#4F4F4F"/>
</svg>
