<svg width="16" height="16" viewBox="0 0 16 16" fill="none" xmlns="http://www.w3.org/2000/svg">
<path fill-rule="evenodd" clip-rule="evenodd" d="M0 9.82178C0 11.0198 0.9 12 2 12H14C15.1 12 16 11.0198 16 9.82178V4.26733C16 3.06931 15.1 2.08911 14 2.08911H2C0.9 2.08911 0 3.06931 0 4.26733V9.82178ZM8 7.20235C7.74138 7.20235 7.5243 7.00749 7.49649 6.75037L7.18856 3.90396C7.13634 3.42127 7.51449 3 8 3C8.48551 3 8.86366 3.42127 8.81144 3.90396L8.50351 6.75037C8.4757 7.00749 8.25862 7.20235 8 7.20235ZM8.60615 8.39966C8.60615 8.73122 8.33477 9 8 9C7.66523 9 7.39385 8.73122 7.39385 8.39966C7.39385 8.06811 7.66523 7.79933 8 7.79933C8.33477 7.79933 8.60615 8.06811 8.60615 8.39966Z" fill="#4F4F4F"/>
<path d="M12 15L7 12H12V15Z" fill="#4F4F4F"/>
<path d="M12 14L7 11H12V14Z" fill="#C4C4C4"/>
<path fill-rule="evenodd" clip-rule="evenodd" d="M0 8.8022C0 10.011 0.9 11 2 11H14C15.1 11 16 10.011 16 8.8022V3.1978C16 1.98901 15.1 1 14 1H2C0.9 1 0 1.98901 0 3.1978V8.8022ZM8 7.20235C7.74138 7.20235 7.5243 7.00749 7.49649 6.75037L7.18856 3.90396C7.13634 3.42127 7.51449 3 8 3C8.48551 3 8.86366 3.42127 8.81144 3.90396L8.50351 6.75037C8.4757 7.00749 8.25862 7.20235 8 7.20235ZM8.60615 8.39966C8.60615 8.73122 8.33477 9 8 9C7.66523 9 7.39385 8.73122 7.39385 8.39966C7.39385 8.06811 7.66523 7.79933 8 7.79933C8.33477 7.79933 8.60615 8.06811 8.60615 8.39966Z" fill="#C4C4C4"/>
</svg>
