<svg width="16" height="16" viewBox="0 0 16 16" fill="none" xmlns="http://www.w3.org/2000/svg">
<path d="M12 15L7 12H12V15Z" fill="#AFB1B3"/>
<path fill-rule="evenodd" clip-rule="evenodd" d="M1 9.8022C1 11.011 1.9 12 3 12H13C14.1 12 15 11.011 15 9.8022V3.1978C15 1.98901 14.1 1 13 1H3C1.9 1 1 1.98901 1 3.1978V9.8022ZM8 7.7C7.74138 7.7 7.5243 7.50712 7.49649 7.25L7.18856 4.4C7.13634 3.91731 7.51449 3.5 8 3.5C8.48551 3.5 8.86366 3.91731 8.81144 4.4L8.50351 7.25C8.4757 7.50712 8.25862 7.7 8 7.7ZM8.60615 8.9C8.60615 9.23156 8.33477 9.5 8 9.5C7.66523 9.5 7.39385 9.23156 7.39385 8.9C7.39385 8.56845 7.66523 8.3 8 8.3C8.33477 8.3 8.60615 8.56845 8.60615 8.9Z" fill="#AFB1B3"/>
</svg>
