<svg width="16" height="16" viewBox="0 0 16 16" fill="none" xmlns="http://www.w3.org/2000/svg">
<g clip-path="url(#clip0)">
<rect x="15" y="3" width="1" height="1" transform="rotate(-90 15 3)" fill="#E9E9E9" fill-opacity="0.8"/>
<rect x="14" y="1" width="1" height="2" transform="rotate(-90 14 1)" fill="#E9E9E9" fill-opacity="0.8"/>
<rect y="1" width="1" height="1" transform="rotate(-90 0 1)" fill="#E9E9E9" fill-opacity="0.8"/>
<rect x="15" y="9" width="1" height="1" transform="rotate(-90 15 9)" fill="#E9E9E9" fill-opacity="0.8"/>
<rect x="15" y="15" width="1" height="1" transform="rotate(-90 15 15)" fill="#E9E9E9" fill-opacity="0.8"/>
<rect x="12" y="1" width="1" height="1" transform="rotate(-90 12 1)" fill="#E9E9E9" fill-opacity="0.8"/>
<rect x="13" y="15" width="1" height="1" transform="rotate(-90 13 15)" fill="#E9E9E9" fill-opacity="0.8"/>
<rect x="10" y="1" width="1" height="1" transform="rotate(-90 10 1)" fill="#E9E9E9" fill-opacity="0.8"/>
<rect x="11" y="15" width="1" height="1" transform="rotate(-90 11 15)" fill="#E9E9E9" fill-opacity="0.8"/>
<rect x="8" y="1" width="1" height="1" transform="rotate(-90 8 1)" fill="#E9E9E9" fill-opacity="0.8"/>
<rect x="9" y="15" width="1" height="1" transform="rotate(-90 9 15)" fill="#E9E9E9" fill-opacity="0.8"/>
<rect x="6" y="1" width="1" height="1" transform="rotate(-90 6 1)" fill="#E9E9E9" fill-opacity="0.8"/>
<rect x="7" y="15" width="1" height="1" transform="rotate(-90 7 15)" fill="#E9E9E9" fill-opacity="0.8"/>
<rect x="4" y="1" width="1" height="1" transform="rotate(-90 4 1)" fill="#E9E9E9" fill-opacity="0.8"/>
<rect x="5" y="15" width="1" height="1" transform="rotate(-90 5 15)" fill="#E9E9E9" fill-opacity="0.8"/>
<rect x="2" y="1" width="1" height="1" transform="rotate(-90 2 1)" fill="#E9E9E9" fill-opacity="0.8"/>
<rect x="3" y="15" width="1" height="1" transform="rotate(-90 3 15)" fill="#E9E9E9" fill-opacity="0.8"/>
<rect y="3" width="1" height="1" transform="rotate(-90 0 3)" fill="#E9E9E9" fill-opacity="0.8"/>
<rect y="9" width="1" height="1" transform="rotate(-90 0 9)" fill="#E9E9E9" fill-opacity="0.8"/>
<rect y="15" width="1" height="2" transform="rotate(-90 0 15)" fill="#E9E9E9" fill-opacity="0.8"/>
<rect x="15" y="13" width="1" height="1" transform="rotate(-90 15 13)" fill="#E9E9E9" fill-opacity="0.8"/>
<rect y="13" width="1" height="1" transform="rotate(-90 0 13)" fill="#E9E9E9" fill-opacity="0.8"/>
<rect x="15" y="11" width="1" height="1" transform="rotate(-90 15 11)" fill="#E9E9E9" fill-opacity="0.8"/>
<rect y="11" width="1" height="1" transform="rotate(-90 0 11)" fill="#E9E9E9" fill-opacity="0.8"/>
<rect x="15" y="7" width="1" height="1" transform="rotate(-90 15 7)" fill="#E9E9E9" fill-opacity="0.8"/>
<rect y="7" width="1" height="1" transform="rotate(-90 0 7)" fill="#E9E9E9" fill-opacity="0.8"/>
<rect x="15" y="5" width="1" height="1" transform="rotate(-90 15 5)" fill="#E9E9E9" fill-opacity="0.8"/>
<rect y="5" width="1" height="1" transform="rotate(-90 0 5)" fill="#E9E9E9" fill-opacity="0.8"/>
<rect x="15" y="4" width="1" height="1" transform="rotate(-90 15 4)" fill="#4D4D4D"/>
<rect x="14" y="2" width="1" height="2" transform="rotate(-90 14 2)" fill="#4D4D4D"/>
<rect y="2" width="1" height="1" transform="rotate(-90 0 2)" fill="#4D4D4D"/>
<rect x="15" y="10" width="1" height="1" transform="rotate(-90 15 10)" fill="#4D4D4D"/>
<rect x="15" y="16" width="1" height="1" transform="rotate(-90 15 16)" fill="#4D4D4D"/>
<rect x="12" y="2" width="1" height="1" transform="rotate(-90 12 2)" fill="#4D4D4D"/>
<rect x="13" y="16" width="1" height="1" transform="rotate(-90 13 16)" fill="#4D4D4D"/>
<rect x="10" y="2" width="1" height="1" transform="rotate(-90 10 2)" fill="#4D4D4D"/>
<rect x="11" y="16" width="1" height="1" transform="rotate(-90 11 16)" fill="#4D4D4D"/>
<rect x="8" y="2" width="1" height="1" transform="rotate(-90 8 2)" fill="#4D4D4D"/>
<rect x="9" y="16" width="1" height="1" transform="rotate(-90 9 16)" fill="#4D4D4D"/>
<rect x="6" y="2" width="1" height="1" transform="rotate(-90 6 2)" fill="#4D4D4D"/>
<rect x="7" y="16" width="1" height="1" transform="rotate(-90 7 16)" fill="#4D4D4D"/>
<rect x="4" y="2" width="1" height="1" transform="rotate(-90 4 2)" fill="#4D4D4D"/>
<rect x="5" y="16" width="1" height="1" transform="rotate(-90 5 16)" fill="#4D4D4D"/>
<rect x="2" y="2" width="1" height="1" transform="rotate(-90 2 2)" fill="#4D4D4D"/>
<rect x="3" y="16" width="1" height="1" transform="rotate(-90 3 16)" fill="#4D4D4D"/>
<rect y="4" width="1" height="1" transform="rotate(-90 0 4)" fill="#4D4D4D"/>
<rect y="10" width="1" height="1" transform="rotate(-90 0 10)" fill="#4D4D4D"/>
<path d="M0 16L-4.37114e-08 15L2 15L2 16L0 16Z" fill="#4D4D4D"/>
<rect x="15" y="14" width="1" height="1" transform="rotate(-90 15 14)" fill="#4D4D4D"/>
<rect y="14" width="1" height="1" transform="rotate(-90 0 14)" fill="#4D4D4D"/>
<rect x="15" y="12" width="1" height="1" transform="rotate(-90 15 12)" fill="#4D4D4D"/>
<rect y="12" width="1" height="1" transform="rotate(-90 0 12)" fill="#4D4D4D"/>
<rect x="15" y="8" width="1" height="1" transform="rotate(-90 15 8)" fill="#4D4D4D"/>
<rect y="8" width="1" height="1" transform="rotate(-90 0 8)" fill="#4D4D4D"/>
<rect x="15" y="6" width="1" height="1" transform="rotate(-90 15 6)" fill="#4D4D4D"/>
<rect y="6" width="1" height="1" transform="rotate(-90 0 6)" fill="#4D4D4D"/>
<path fill-rule="evenodd" clip-rule="evenodd" d="M3 4.5C3 4.22386 3.22386 4 3.5 4H11.5C11.7761 4 12 4.22386 12 4.5C12 4.77614 11.7761 5 11.5 5H3.5C3.22386 5 3 4.77614 3 4.5ZM3.5 6C2.84689 6 2.29127 5.5826 2.08535 5C2.03008 5.15639 2 5.32468 2 5.5C2 6.32843 2.67157 7 3.5 7H11.5C12.3284 7 13 6.32843 13 5.5C13 5.32468 12.9699 5.15639 12.9146 5C12.7087 5.5826 12.1531 6 11.5 6H3.5Z" fill="#4D4D4D"/>
<rect x="2.5" y="3.5" width="10" height="2" rx="1" stroke="#E9E9E9" stroke-opacity="0.8"/>
<path fill-rule="evenodd" clip-rule="evenodd" d="M3 9.5C3 9.22386 3.22386 9 3.5 9H5.5C5.77614 9 6 9.22386 6 9.5C6 9.77614 5.77614 10 5.5 10H3.5C3.22386 10 3 9.77614 3 9.5ZM3.5 11C2.84689 11 2.29127 10.5826 2.08535 10C2.03008 10.1564 2 10.3247 2 10.5C2 11.3284 2.67157 12 3.5 12H5.5C6.32843 12 7 11.3284 7 10.5C7 10.3247 6.96992 10.1564 6.91465 10C6.70873 10.5826 6.15311 11 5.5 11H3.5Z" fill="#4D4D4D"/>
<path d="M3.5 8.5H5.5C6.05228 8.5 6.5 8.94772 6.5 9.5C6.5 10.0523 6.05228 10.5 5.5 10.5H3.5C2.94772 10.5 2.5 10.0523 2.5 9.5C2.5 8.94772 2.94772 8.5 3.5 8.5Z" stroke="#E9E9E9" stroke-opacity="0.8"/>
</g>
<defs>
<clipPath id="clip0">
<rect width="16" height="16" fill="white"/>
</clipPath>
</defs>
</svg>
