<svg width="64" height="64" viewBox="0 0 64 64" fill="none" xmlns="http://www.w3.org/2000/svg">
<rect x="59.9999" y="15" width="4" height="4" transform="rotate(-90 59.9999 15)" fill="#4D4D4D"/>
<rect x="55.9999" y="7" width="4" height="7.99999" transform="rotate(-90 55.9999 7)" fill="#4D4D4D"/>
<rect y="7" width="4" height="4" transform="rotate(-90 0 7)" fill="#4D4D4D"/>
<rect x="59.9999" y="39" width="4" height="4" transform="rotate(-90 59.9999 39)" fill="#4D4D4D"/>
<rect x="59.9999" y="63" width="4" height="4" transform="rotate(-90 59.9999 63)" fill="#4D4D4D"/>
<rect x="47.9999" y="7" width="4" height="4" transform="rotate(-90 47.9999 7)" fill="#4D4D4D"/>
<rect x="51.9999" y="63" width="4" height="4" transform="rotate(-90 51.9999 63)" fill="#4D4D4D"/>
<rect x="39.9999" y="7" width="4" height="4" transform="rotate(-90 39.9999 7)" fill="#4D4D4D"/>
<rect x="43.9999" y="63" width="4" height="4" transform="rotate(-90 43.9999 63)" fill="#4D4D4D"/>
<rect x="32" y="7" width="4" height="4" transform="rotate(-90 32 7)" fill="#4D4D4D"/>
<rect x="35.9999" y="63" width="4" height="4" transform="rotate(-90 35.9999 63)" fill="#4D4D4D"/>
<rect x="24" y="7" width="4" height="4" transform="rotate(-90 24 7)" fill="#4D4D4D"/>
<rect x="28" y="63" width="4" height="4" transform="rotate(-90 28 63)" fill="#4D4D4D"/>
<rect x="16" y="7" width="4" height="4" transform="rotate(-90 16 7)" fill="#4D4D4D"/>
<rect x="20" y="63" width="4" height="4" transform="rotate(-90 20 63)" fill="#4D4D4D"/>
<rect x="8" y="7" width="4" height="4" transform="rotate(-90 8 7)" fill="#4D4D4D"/>
<rect x="12" y="63" width="4" height="4" transform="rotate(-90 12 63)" fill="#4D4D4D"/>
<rect y="15" width="4" height="4" transform="rotate(-90 0 15)" fill="#4D4D4D"/>
<rect y="39" width="4" height="4" transform="rotate(-90 0 39)" fill="#4D4D4D"/>
<path d="M0 63L-1.74845e-07 59L7.99999 59L7.99999 63L0 63Z" fill="#4D4D4D"/>
<rect x="59.9999" y="55" width="4" height="4" transform="rotate(-90 59.9999 55)" fill="#4D4D4D"/>
<rect y="55" width="4" height="4" transform="rotate(-90 0 55)" fill="#4D4D4D"/>
<rect x="59.9999" y="47" width="4" height="4" transform="rotate(-90 59.9999 47)" fill="#4D4D4D"/>
<rect y="47" width="4" height="4" transform="rotate(-90 0 47)" fill="#4D4D4D"/>
<rect x="59.9999" y="31" width="4" height="4" transform="rotate(-90 59.9999 31)" fill="#4D4D4D"/>
<rect y="31" width="4" height="4" transform="rotate(-90 0 31)" fill="#4D4D4D"/>
<rect x="59.9999" y="23" width="4" height="4" transform="rotate(-90 59.9999 23)" fill="#4D4D4D"/>
<rect y="23" width="4" height="4" transform="rotate(-90 0 23)" fill="#4D4D4D"/>
<rect x="59.9999" y="13" width="4" height="4" transform="rotate(-90 59.9999 13)" fill="#C4C4C4"/>
<rect x="55.9999" y="5" width="4" height="7.99999" transform="rotate(-90 55.9999 5)" fill="#C4C4C4"/>
<rect y="5" width="4" height="4" transform="rotate(-90 0 5)" fill="#C4C4C4"/>
<rect x="59.9999" y="37" width="4" height="4" transform="rotate(-90 59.9999 37)" fill="#C4C4C4"/>
<rect x="59.9999" y="61" width="4" height="4" transform="rotate(-90 59.9999 61)" fill="#C4C4C4"/>
<rect x="47.9999" y="5" width="4" height="4" transform="rotate(-90 47.9999 5)" fill="#C4C4C4"/>
<rect x="51.9999" y="61" width="4" height="4" transform="rotate(-90 51.9999 61)" fill="#C4C4C4"/>
<rect x="39.9999" y="5" width="4" height="4" transform="rotate(-90 39.9999 5)" fill="#C4C4C4"/>
<rect x="43.9999" y="61" width="4" height="4" transform="rotate(-90 43.9999 61)" fill="#C4C4C4"/>
<rect x="32" y="5" width="4" height="4" transform="rotate(-90 32 5)" fill="#C4C4C4"/>
<rect x="35.9999" y="61" width="4" height="4" transform="rotate(-90 35.9999 61)" fill="#C4C4C4"/>
<rect x="24" y="5" width="4" height="4" transform="rotate(-90 24 5)" fill="#C4C4C4"/>
<rect x="28" y="61" width="4" height="4" transform="rotate(-90 28 61)" fill="#C4C4C4"/>
<rect x="16" y="5" width="4" height="4" transform="rotate(-90 16 5)" fill="#C4C4C4"/>
<rect x="20" y="61" width="4" height="4" transform="rotate(-90 20 61)" fill="#C4C4C4"/>
<rect x="8" y="5" width="4" height="4" transform="rotate(-90 8 5)" fill="#C4C4C4"/>
<rect x="12" y="61" width="4" height="4" transform="rotate(-90 12 61)" fill="#C4C4C4"/>
<rect y="13" width="4" height="4" transform="rotate(-90 0 13)" fill="#C4C4C4"/>
<rect y="37" width="4" height="4" transform="rotate(-90 0 37)" fill="#C4C4C4"/>
<rect y="61" width="4" height="7.99999" transform="rotate(-90 0 61)" fill="#C4C4C4"/>
<rect x="59.9999" y="53" width="4" height="4" transform="rotate(-90 59.9999 53)" fill="#C4C4C4"/>
<rect y="53" width="4" height="4" transform="rotate(-90 0 53)" fill="#C4C4C4"/>
<rect x="59.9999" y="45" width="4" height="4" transform="rotate(-90 59.9999 45)" fill="#C4C4C4"/>
<rect y="45" width="4" height="4" transform="rotate(-90 0 45)" fill="#C4C4C4"/>
<rect x="59.9999" y="29" width="4" height="4" transform="rotate(-90 59.9999 29)" fill="#C4C4C4"/>
<rect y="29" width="4" height="4" transform="rotate(-90 0 29)" fill="#C4C4C4"/>
<rect x="59.9999" y="21" width="4" height="4" transform="rotate(-90 59.9999 21)" fill="#C4C4C4"/>
<rect y="21" width="4" height="4" transform="rotate(-90 0 21)" fill="#C4C4C4"/>
<rect x="12" y="19" width="40" height="9" rx="4.5" stroke="#4D4D4D" stroke-width="4"/>
<rect x="12" y="38" width="24" height="9" rx="4.5" stroke="#4D4D4D" stroke-width="4"/>
<rect x="12" y="17" width="40" height="9" rx="4.5" stroke="#C4C4C4" stroke-width="4"/>
<rect x="12" y="36" width="24" height="9" rx="4.5" stroke="#C4C4C4" stroke-width="4"/>
</svg>
