<svg width="64" height="64" xmlns="http://www.w3.org/2000/svg" xmlns:svg="http://www.w3.org/2000/svg">
    <style type="text/css">
        .st0{fill-rule:evenodd;clip-rule:evenodd;fill:#007FC3;}
        .st1{fill-rule:evenodd;clip-rule:evenodd;fill:#6D6E71;}
    </style>
    <g>
        <path class="st0"
              d="m25.86148,49.03699c-2.45791,0.63961 -4.91582,-0.74622 -5.55701,-3.19806l-5.34328,-20.0412c-0.64119,-2.45185 0.74806,-4.9037 3.20597,-5.54331l20.09074,-5.33011c2.45791,-0.63961 4.91582,0.74622 5.55701,3.19806l5.34328,20.0412c0.64119,2.45185 -0.74806,4.9037 -3.20597,5.54331l-20.09074,5.33011l0,0z"/>
        <path class="st1"
              d="m61.76834,26.54394l-6.30507,-6.28953c0.3206,1.06602 0.3206,2.13204 0,3.30467l-7.37373,27.39675c0,0 0,0 0,0.1066l13.6788,-13.64508c2.88537,-3.09146 2.88537,-7.88856 0,-10.87342l0,0z"/>
        <path class="st1"
              d="m8.54925,40.29561l7.37373,-27.39675c0,0 0,0 0,-0.1066l-13.6788,13.64508c-2.99224,2.98486 -2.99224,7.78196 0,10.76682l6.30507,6.28953c-0.3206,-0.85282 -0.3206,-2.02544 0,-3.19806l0,0z"/>
        <path class="st1"
              d="m23.51044,8.52817l27.46447,7.35555c0,0 0,0 0.10687,0l-13.6788,-13.64508c-2.99224,-2.98486 -7.80119,-2.98486 -10.79343,0l-6.30507,6.28953c0.96179,-0.2132 2.13731,-0.2132 3.20597,0l0,0z"/>
        <path class="st1"
              d="m40.39521,55.32652l-27.46447,-7.35555c0,0 0,0 -0.10687,0l13.6788,13.64508c2.99224,2.98486 7.80119,2.98486 10.79343,0l6.30507,-6.28953c-0.96179,0.2132 -2.13731,0.31981 -3.20597,0l0,0z"/>
    </g>
</svg>